<?xml version="1.0" encoding="UTF-8"?>
<svg width="468px" height="400px" viewBox="0 0 468 400" version="1.1" xmlns="http://www.w3.org/2000/svg" xmlns:xlink="http://www.w3.org/1999/xlink">
    <!-- Generator: Sketch 64 (93537) - https://sketch.com -->
    <title>Group 24</title>
    <desc>Created with Sketch.</desc>
    <defs>
        <linearGradient x1="0%" y1="50%" x2="41.6594252%" y2="42.9459276%" id="linearGradient-1">
            <stop stop-color="#FF5B06" stop-opacity="0.5" offset="0%"></stop>
            <stop stop-color="#FF8E06" stop-opacity="0" offset="100%"></stop>
        </linearGradient>
        <path d="M114.385004,370.091224 C126.461564,377.800564 136.021671,375.27224 142.186755,365.541152 C148.35033,355.808546 138.545673,296.430099 138.545673,296.430099 C138.545673,296.430099 174.01302,355.80248 198.398615,361.70089 C222.787228,367.597784 221.381818,344.858038 221.849785,342.349432 C222.474747,328.547545 218.572509,317.255782 218.572509,317.255782 L210.313651,324.875636 C201.955162,302.654599 183.173328,264.626248 182.530118,264.241571 C181.886909,263.856894 81.8039542,274.033126 80.2943841,281.111522 C89.3518043,340.262465 102.308444,362.380368 114.385004,370.091224 Z" id="path-2"></path>
        <linearGradient x1="24.6324245%" y1="50%" x2="46.7460148%" y2="35.0199223%" id="linearGradient-3">
            <stop stop-color="#FF5B06" stop-opacity="0.5" offset="0%"></stop>
            <stop stop-color="#FF8E06" stop-opacity="0" offset="100%"></stop>
        </linearGradient>
        <linearGradient x1="22.5152836%" y1="38.9826617%" x2="19.0829607%" y2="29.3126029%" id="linearGradient-4">
            <stop stop-color="#FF8E06" stop-opacity="0" offset="0%"></stop>
            <stop stop-color="#FF8E06" offset="100%"></stop>
        </linearGradient>
        <path d="M130.676264,270.442291 C130.676264,257.223987 181.743365,263.696236 182.420529,264.05086 C183.097694,264.405485 202.203518,302.354812 210.695411,324.735472 L219.086082,317.060881 C219.086082,317.060881 223.050601,328.433757 222.415665,342.33326 C221.941763,344.861415 223.36807,367.764509 198.591741,361.825255 C173.815412,355.884474 137.781996,296.0856 137.781996,296.0856 C133.044841,287.802264 130.676264,279.254494 130.676264,270.442291 Z" id="path-5"></path>
        <linearGradient x1="30.6893479%" y1="70.131174%" x2="12.8974834%" y2="67.7133473%" id="linearGradient-6">
            <stop stop-color="#FA3D3C" offset="0%"></stop>
            <stop stop-color="#E51615" offset="100%"></stop>
        </linearGradient>
        <path d="M81.7360235,291.823909 C148.804332,275.347497 182.651269,266.521259 183.276834,265.345195 C184.215182,263.5811 144.199012,213.870549 156.275573,203.760288 C168.352133,193.64851 265.219732,160.928938 299.130713,108.686522 L290.668064,103.197618 C290.668064,103.197618 175.264454,170.984599 151.147563,161.174642 C121.478474,149.104816 167.423747,38.5198527 167.423747,38.5198527 C167.423747,38.5198527 162.593123,36.0688803 159.797399,35.407603 C53.1221235,173.931529 81.7360235,291.823909 81.7360235,291.823909 Z" id="path-7"></path>
        <path d="M4.15304459,256.731295 L106.503497,230.407884 C106.503497,230.407884 66.7786564,178.840066 78.8866581,168.73806 L78.8866581,168.73806 C90.9946599,158.636053 188.114455,125.941681 222.113724,73.7419192 L222.113724,73.7419192 L213.629042,68.2574966 C213.629042,68.2574966 97.9249773,135.989131 73.7437844,126.187184 L73.7437844,126.187184 C43.9989647,114.128729 90.0623437,3.63405512 90.0623437,3.63405512 L90.0623437,3.63405512 C90.0623437,3.63405512 85.2206565,1.18356841 82.4176541,0.524346569 L82.4176541,0.524346569 C-24.535352,138.933655 4.15304459,256.731295 4.15304459,256.731295" id="path-8"></path>
        <path d="M4.15304459,256.731295 L106.503497,230.407884 C106.503497,230.407884 66.7786564,178.840066 78.8866581,168.73806 L78.8866581,168.73806 C90.9946599,158.636053 188.114455,125.941681 222.113724,73.7419192 L222.113724,73.7419192 L213.629042,68.2574966 C213.629042,68.2574966 97.9249773,135.989131 73.7437844,126.187184 L73.7437844,126.187184 C43.9989647,114.128729 90.0623437,3.63405512 90.0623437,3.63405512 L90.0623437,3.63405512 C90.0623437,3.63405512 85.2206565,1.18356841 82.4176541,0.524346569 L82.4176541,0.524346569 C-24.535352,138.933655 4.15304459,256.731295 4.15304459,256.731295" id="path-10"></path>
        <path d="M4.15304459,256.731295 L106.503497,230.407884 C106.503497,230.407884 66.7786564,178.840066 78.8866581,168.73806 L78.8866581,168.73806 C90.9946599,158.636053 188.114455,125.941681 222.113724,73.7419192 L222.113724,73.7419192 L213.629042,68.2574966 C213.629042,68.2574966 97.9249773,135.989131 73.7437844,126.187184 L73.7437844,126.187184 C43.9989647,114.128729 90.0623437,3.63405512 90.0623437,3.63405512 L90.0623437,3.63405512 C90.0623437,3.63405512 85.2206565,1.18356841 82.4176541,0.524346569 L82.4176541,0.524346569 C-24.535352,138.933655 4.15304459,256.731295 4.15304459,256.731295" id="path-12"></path>
        <path d="M4.15304459,256.731295 L106.503497,230.407884 C106.503497,230.407884 66.7786564,178.840066 78.8866581,168.73806 L78.8866581,168.73806 C90.9946599,158.636053 188.114455,125.941681 222.113724,73.7419192 L222.113724,73.7419192 L213.629042,68.2574966 C213.629042,68.2574966 97.9249773,135.989131 73.7437844,126.187184 L73.7437844,126.187184 C43.9989647,114.128729 90.0623437,3.63405512 90.0623437,3.63405512 L90.0623437,3.63405512 C90.0623437,3.63405512 85.2206565,1.18356841 82.4176541,0.524346569 L82.4176541,0.524346569 C-24.535352,138.933655 4.15304459,256.731295 4.15304459,256.731295" id="path-14"></path>
        <path d="M4.15304459,256.731295 L106.503497,230.407884 C106.503497,230.407884 66.7786564,178.840066 78.8866581,168.73806 L78.8866581,168.73806 C90.9946599,158.636053 188.114455,125.941681 222.113724,73.7419192 L222.113724,73.7419192 L213.629042,68.2574966 C213.629042,68.2574966 97.9249773,135.989131 73.7437844,126.187184 L73.7437844,126.187184 C43.9989647,114.128729 90.0623437,3.63405512 90.0623437,3.63405512 L90.0623437,3.63405512 C90.0623437,3.63405512 85.2206565,1.18356841 82.4176541,0.524346569 L82.4176541,0.524346569 C-24.535352,138.933655 4.15304459,256.731295 4.15304459,256.731295" id="path-16"></path>
        <path d="M4.15304459,256.731295 L106.503497,230.407884 C106.503497,230.407884 66.7786564,178.840066 78.8866581,168.73806 L78.8866581,168.73806 C90.9946599,158.636053 188.114455,125.941681 222.113724,73.7419192 L222.113724,73.7419192 L213.629042,68.2574966 C213.629042,68.2574966 97.9249773,135.989131 73.7437844,126.187184 L73.7437844,126.187184 C43.9989647,114.128729 90.0623437,3.63405512 90.0623437,3.63405512 L90.0623437,3.63405512 C90.0623437,3.63405512 85.2206565,1.18356841 82.4176541,0.524346569 L82.4176541,0.524346569 C-24.535352,138.933655 4.15304459,256.731295 4.15304459,256.731295" id="path-18"></path>
        <path d="M4.15304459,256.731295 L106.503497,230.407884 C106.503497,230.407884 66.7786564,178.840066 78.8866581,168.73806 L78.8866581,168.73806 C90.9946599,158.636053 188.114455,125.941681 222.113724,73.7419192 L222.113724,73.7419192 L213.629042,68.2574966 C213.629042,68.2574966 97.9249773,135.989131 73.7437844,126.187184 L73.7437844,126.187184 C43.9989647,114.128729 90.0623437,3.63405512 90.0623437,3.63405512 L90.0623437,3.63405512 C90.0623437,3.63405512 85.2206565,1.18356841 82.4176541,0.524346569 L82.4176541,0.524346569 C-24.535352,138.933655 4.15304459,256.731295 4.15304459,256.731295" id="path-20"></path>
        <path d="M4.15304459,256.731295 L106.503497,230.407884 C106.503497,230.407884 66.7786564,178.840066 78.8866581,168.73806 L78.8866581,168.73806 C90.9946599,158.636053 188.114455,125.941681 222.113724,73.7419192 L222.113724,73.7419192 L213.629042,68.2574966 C213.629042,68.2574966 97.9249773,135.989131 73.7437844,126.187184 L73.7437844,126.187184 C43.9989647,114.128729 90.0623437,3.63405512 90.0623437,3.63405512 L90.0623437,3.63405512 C90.0623437,3.63405512 85.2206565,1.18356841 82.4176541,0.524346569 L82.4176541,0.524346569 C-24.535352,138.933655 4.15304459,256.731295 4.15304459,256.731295" id="path-22"></path>
        <path d="M4.15304459,256.731295 L106.503497,230.407884 C106.503497,230.407884 66.7786564,178.840066 78.8866581,168.73806 L78.8866581,168.73806 C90.9946599,158.636053 188.114455,125.941681 222.113724,73.7419192 L222.113724,73.7419192 L213.629042,68.2574966 C213.629042,68.2574966 97.9249773,135.989131 73.7437844,126.187184 L73.7437844,126.187184 C43.9989647,114.128729 90.0623437,3.63405512 90.0623437,3.63405512 L90.0623437,3.63405512 C90.0623437,3.63405512 85.2206565,1.18356841 82.4176541,0.524346569 L82.4176541,0.524346569 C-24.535352,138.933655 4.15304459,256.731295 4.15304459,256.731295" id="path-24"></path>
        <path d="M4.15304459,256.731295 L106.503497,230.407884 C106.503497,230.407884 66.7786564,178.840066 78.8866581,168.73806 L78.8866581,168.73806 C90.9946599,158.636053 188.114455,125.941681 222.113724,73.7419192 L222.113724,73.7419192 L213.629042,68.2574966 C213.629042,68.2574966 97.9249773,135.989131 73.7437844,126.187184 L73.7437844,126.187184 C43.9989647,114.128729 90.0623437,3.63405512 90.0623437,3.63405512 L90.0623437,3.63405512 C90.0623437,3.63405512 85.2206565,1.18356841 82.4176541,0.524346569 L82.4176541,0.524346569 C-24.535352,138.933655 4.15304459,256.731295 4.15304459,256.731295" id="path-26"></path>
        <path d="M4.15304459,256.731295 L106.503497,230.407884 C106.503497,230.407884 66.7786564,178.840066 78.8866581,168.73806 L78.8866581,168.73806 C90.9946599,158.636053 188.114455,125.941681 222.113724,73.7419192 L222.113724,73.7419192 L213.629042,68.2574966 C213.629042,68.2574966 97.9249773,135.989131 73.7437844,126.187184 L73.7437844,126.187184 C43.9989647,114.128729 90.0623437,3.63405512 90.0623437,3.63405512 L90.0623437,3.63405512 C90.0623437,3.63405512 85.2206565,1.18356841 82.4176541,0.524346569 L82.4176541,0.524346569 C-24.535352,138.933655 4.15304459,256.731295 4.15304459,256.731295" id="path-28"></path>
        <path d="M4.15304459,256.731295 L106.503497,230.407884 C106.503497,230.407884 66.7786564,178.840066 78.8866581,168.73806 L78.8866581,168.73806 C90.9946599,158.636053 188.114455,125.941681 222.113724,73.7419192 L222.113724,73.7419192 L213.629042,68.2574966 C213.629042,68.2574966 97.9249773,135.989131 73.7437844,126.187184 L73.7437844,126.187184 C43.9989647,114.128729 90.0623437,3.63405512 90.0623437,3.63405512 L90.0623437,3.63405512 C90.0623437,3.63405512 85.2206565,1.18356841 82.4176541,0.524346569 L82.4176541,0.524346569 C-24.535352,138.933655 4.15304459,256.731295 4.15304459,256.731295" id="path-30"></path>
        <path d="M4.15304459,256.731295 L106.503497,230.407884 C106.503497,230.407884 66.7786564,178.840066 78.8866581,168.73806 L78.8866581,168.73806 C90.9946599,158.636053 188.114455,125.941681 222.113724,73.7419192 L222.113724,73.7419192 L213.629042,68.2574966 C213.629042,68.2574966 97.9249773,135.989131 73.7437844,126.187184 L73.7437844,126.187184 C43.9989647,114.128729 90.0623437,3.63405512 90.0623437,3.63405512 L90.0623437,3.63405512 C90.0623437,3.63405512 85.2206565,1.18356841 82.4176541,0.524346569 L82.4176541,0.524346569 C-24.535352,138.933655 4.15304459,256.731295 4.15304459,256.731295" id="path-32"></path>
        <path d="M4.15304459,256.731295 L106.503497,230.407884 C106.503497,230.407884 66.7786564,178.840066 78.8866581,168.73806 L78.8866581,168.73806 C90.9946599,158.636053 188.114455,125.941681 222.113724,73.7419192 L222.113724,73.7419192 L213.629042,68.2574966 C213.629042,68.2574966 97.9249773,135.989131 73.7437844,126.187184 L73.7437844,126.187184 C43.9989647,114.128729 90.0623437,3.63405512 90.0623437,3.63405512 L90.0623437,3.63405512 C90.0623437,3.63405512 85.2206565,1.18356841 82.4176541,0.524346569 L82.4176541,0.524346569 C-24.535352,138.933655 4.15304459,256.731295 4.15304459,256.731295" id="path-34"></path>
        <linearGradient x1="73.5743454%" y1="-4.16126282%" x2="35.3841317%" y2="76.5731649%" id="linearGradient-36">
            <stop stop-color="#FFD38B" stop-opacity="0" offset="0%"></stop>
            <stop stop-color="#FFAF4E" stop-opacity="0.5" offset="100%"></stop>
        </linearGradient>
        <path d="M88.8906608,288.993602 C93.1854581,309.541732 71.1277489,311.083193 75.6239589,339.710632 C67.3336362,343.593045 45.3639954,322.115271 41.2849559,301.718166 C38.6678148,289.198604 48.6066072,273.571866 61.2483518,270.994761 C73.8975315,268.41398 86.2735197,276.47404 88.8906608,288.993602" id="path-37"></path>
        <linearGradient x1="50%" y1="0%" x2="50%" y2="96.7643605%" id="linearGradient-38">
            <stop stop-color="#FA3D3C" stop-opacity="0" offset="0%"></stop>
            <stop stop-color="#FA3D3C" stop-opacity="0.2" offset="100%"></stop>
        </linearGradient>
        <path d="M58.072735,263.580995 C53.6640159,250.287784 50.8195235,238.942462 49.5392578,229.545029 C48.3070668,220.892967 53.7853403,212.928643 59.7427778,211.144259 C65.7037192,209.357331 71.5349945,214.924755 72.7671854,223.576817 C74.1152238,233.043799 69.2170737,246.378525 58.072735,263.580995 Z" id="path-39"></path>
    </defs>
    <g id="Main-Feature-Pages" stroke="none" stroke-width="1" fill="none" fill-rule="evenodd">
        <g id="overview" transform="translate(-734.000000, -160.000000)">
            <g id="Group-24" transform="translate(734.000000, 160.000000)">
                <rect id="Rectangle" fill="#FFFFFF" x="0" y="0" width="468" height="400"></rect>
                <g id="girl-jump" transform="translate(38.000000, 9.000000)">
                    <g id="Group-336" transform="translate(49.703991, 0.000000)">
                        <path d="M329.520302,182.560956 C329.520302,263.142186 273.749962,344.944404 193.61062,344.944404 C113.472598,344.944404 0.138196477,335.491036 0.138196477,254.909807 C0.138196477,174.329904 74.2984679,63.5862886 154.43649,63.5862886 C234.574512,63.5862886 329.520302,101.979727 329.520302,182.560956" id="Fill-1" fill="#E5F2FC"></path>
                        <path d="M264.712517,297.036776 C264.712517,297.036776 282.860568,313.423104 288.08217,309.368989 C299.00089,300.306761 286.421643,290.530172 281.674046,285.045818 C276.927957,279.561464 270.364347,268.858176 264.35022,275.267712 C254.910878,285.324889 253.170344,288.444722 253.170344,288.444722 L264.712517,297.036776 Z" id="Fill-3" fill="#002058"></path>
                        <path d="M209.498181,325.449552 L255.703101,284.894755 C255.703101,284.894755 267.867216,291.360409 268.212908,297.381671 C260.837149,300.64559 233.44751,372.3608 198.398313,361.69998 C163.352135,351.042194 209.498181,325.449552 209.498181,325.449552" id="Fill-5" fill="#FBAD74"></path>
                        <polygon id="Fill-7" fill="#FFBB89" points="142.186755 365.540393 160.653326 305.277716 134.883456 288.41818"></polygon>
                        <g id="Fill-9">
                            <use fill="#FF8E06" xlink:href="#path-2"></use>
                            <use fill="url(#linearGradient-1)" xlink:href="#path-2"></use>
                        </g>
                        <g id="Fill-1">
                            <use fill="#FF8E06" xlink:href="#path-5"></use>
                            <use fill="url(#linearGradient-3)" xlink:href="#path-5"></use>
                            <use fill="url(#linearGradient-4)" xlink:href="#path-5"></use>
                        </g>
                        <g id="Fill-11">
                            <use fill="#FA3D3C" xlink:href="#path-7"></use>
                            <use fill="url(#linearGradient-6)" xlink:href="#path-7"></use>
                        </g>
                        <path d="M182.886122,150.479242 C172.504809,168.544546 139.223319,171.186622 133.930766,168.913102 C128.638213,166.639583 121.410392,140.675352 131.790196,122.610047 C142.171509,104.546259 159.567794,95.9769557 172.483675,103.469409 C185.402575,110.963378 193.267435,132.413937 182.886122,150.479242" id="Fill-13" fill="#FBAD74"></path>
                        <path d="M141.358152,111.784363 C135.170425,99.8025051 155.599436,89.0431001 167.810348,90.1032671 C180.02126,91.163434 196.351789,102.691801 202.614995,97.7974398 C208.87971,92.9015617 218.5002,82.6456981 233.940083,87.3064891 C249.381474,91.9672801 249.381474,109.770197 262.523791,106.940052 C263.346507,114.368804 261.784102,131.367875 240.204798,128.569581 C218.627004,125.772803 210.978013,147.293129 207.489396,160.042433 C203.999271,172.791736 189.644769,178.49601 178.947956,174.72855 C168.249633,170.962607 165.722613,153.748165 170.595505,150.250676 C175.468397,146.754704 180.495265,141.71474 178.298841,135.886097 C176.103926,130.054421 164.662895,127.234893 162.772913,125.643884 C151.425475,116.081148 152.107801,103.583615 141.358152,111.784363" id="Fill-15" fill="#002058"></path>
                        <path d="M151.914878,22.9246306 C151.914878,22.9246306 151.261234,43.2118875 161.449322,44.8817642 C171.635901,46.5516408 189.279755,28.8700588 186.970113,26.813426 C184.660471,24.7567932 174.091971,30.3928164 174.091971,30.3928164 C174.091971,30.3928164 183.827188,8.44478302 180.957495,6.89927504 C178.089312,5.35376705 171.096984,22.9731647 170.123311,22.2709369 C169.14662,21.5671923 174.540313,0.492772859 170.663737,0.0165319303 C166.785652,-0.461225689 165.226266,18.8477656 163.77406,18.9372504 C162.323363,19.0237017 163.091734,1.90936212 159.473295,2.08378157 C155.854855,2.25820102 159.180438,22.0843839 157.713136,22.3786219 C156.242815,22.6713433 153.620692,7.79412264 150.619667,8.10352758 C148.550046,8.47815022 151.914878,22.9246306 151.914878,22.9246306" id="Fill-17" fill="#FBAD74"></path>
                        <path d="M309.45421,104.157228 C309.45421,104.157228 296.594183,122.415152 286.540446,117.073367 C276.48822,111.733099 276.423308,85.5079971 279.813802,85.2440929 C283.204297,84.9801887 285.027857,95.8973295 285.027857,95.8973295 C285.027857,95.8973295 294.939694,72.9786139 298.482655,73.5367562 C302.027125,74.0964151 292.571179,91.3806241 293.892053,91.415508 C295.214436,91.4503919 306.729436,70.893164 310.452036,73.0650653 C314.174636,75.2384833 300.458682,91.6809289 301.676905,92.7289623 C302.893619,93.7769956 313.726293,78.0398113 316.787701,80.6106023 C319.852128,83.1813933 303.62727,98.563672 304.723218,99.8028084 C305.819165,101.043462 317.877611,91.7749637 320.308019,94.0515167 C321.877971,95.7638607 309.45421,104.157228 309.45421,104.157228" id="Fill-19" fill="#FBAD74"></path>
                    </g>
                    <g id="jumper-print" transform="translate(126.626834, 35.453247)">
                        <g id="Group-339">
                            <mask id="mask-9" fill="white">
                                <use xlink:href="#path-8"></use>
                            </mask>
                            <g id="Clip-338"></g>
                            <line x1="64.2556516" y1="219.758497" x2="71.3191571" y2="225.820307" id="Stroke-337" stroke="#FFFFFF" stroke-width="1.28830755" stroke-linecap="round" mask="url(#mask-9)"></line>
                        </g>
                        <g id="Group-342">
                            <mask id="mask-11" fill="white">
                                <use xlink:href="#path-10"></use>
                            </mask>
                            <g id="Clip-341"></g>
                            <line x1="36.0046566" y1="208.14028" x2="27.9316464" y2="216.728349" id="Stroke-340" stroke="#FFFFFF" stroke-width="1.7745283" stroke-linecap="round" mask="url(#mask-11)"></line>
                        </g>
                        <g id="Group-345">
                            <mask id="mask-13" fill="white">
                                <use xlink:href="#path-12"></use>
                            </mask>
                            <g id="Clip-344"></g>
                            <line x1="11.2831441" y1="178.336633" x2="17.3371449" y2="183.387636" id="Stroke-343" stroke="#FFFFFF" stroke-width="1.28830755" stroke-linecap="round" mask="url(#mask-13)"></line>
                        </g>
                        <g id="Group-348">
                            <mask id="mask-15" fill="white">
                                <use xlink:href="#path-14"></use>
                            </mask>
                            <g id="Clip-347"></g>
                            <line x1="49.1206494" y1="166.717659" x2="49.1206494" y2="172.274823" id="Stroke-346" stroke="#FFFFFF" stroke-width="1.28830755" stroke-linecap="round" mask="url(#mask-15)"></line>
                        </g>
                        <g id="Group-351">
                            <mask id="mask-17" fill="white">
                                <use xlink:href="#path-16"></use>
                            </mask>
                            <g id="Clip-350"></g>
                            <line x1="26.4181462" y1="137.419415" x2="29.9506557" y2="133.377703" id="Stroke-349" stroke="#FFFFFF" stroke-width="1.28830755" stroke-linecap="round" mask="url(#mask-17)"></line>
                        </g>
                        <g id="Group-354">
                            <mask id="mask-19" fill="white">
                                <use xlink:href="#path-18"></use>
                            </mask>
                            <g id="Clip-353"></g>
                            <line x1="37.5181568" y1="84.883223" x2="38.5261479" y2="89.4295805" id="Stroke-352" stroke="#FFFFFF" stroke-width="2.36603774" stroke-linecap="round" mask="url(#mask-19)"></line>
                        </g>
                        <g id="Group-357">
                            <mask id="mask-21" fill="white">
                                <use xlink:href="#path-20"></use>
                            </mask>
                            <g id="Clip-356"></g>
                            <line x1="65.7691518" y1="48.007717" x2="76.3636533" y2="48.5123627" id="Stroke-355" stroke="#FFFFFF" stroke-width="1.28830755" stroke-linecap="round" mask="url(#mask-21)"></line>
                        </g>
                        <g id="Group-360">
                            <mask id="mask-23" fill="white">
                                <use xlink:href="#path-22"></use>
                            </mask>
                            <g id="Clip-359"></g>
                            <line x1="74.8501531" y1="141.460369" x2="78.8866581" y2="136.409366" id="Stroke-358" stroke="#FFFFFF" stroke-width="1.7745283" stroke-linecap="round" mask="url(#mask-23)"></line>
                        </g>
                        <g id="Group-363">
                            <mask id="mask-25" fill="white">
                                <use xlink:href="#path-24"></use>
                            </mask>
                            <g id="Clip-362"></g>
                            <line x1="110.670163" y1="148.027583" x2="117.733668" y2="147.522937" id="Stroke-361" stroke="#FFFFFF" stroke-width="1.28830755" stroke-linecap="round" mask="url(#mask-25)"></line>
                        </g>
                        <g id="Group-366">
                            <mask id="mask-27" fill="white">
                                <use xlink:href="#path-26"></use>
                            </mask>
                            <g id="Clip-365"></g>
                            <line x1="147.498163" y1="119.738631" x2="147.498163" y2="114.181466" id="Stroke-364" stroke="#FFFFFF" stroke-width="1.7745283" stroke-linecap="round" mask="url(#mask-27)"></line>
                        </g>
                        <g id="Group-369">
                            <mask id="mask-29" fill="white">
                                <use xlink:href="#path-28"></use>
                            </mask>
                            <g id="Clip-368"></g>
                            <line x1="176.254667" y1="99.027699" x2="174.741167" y2="107.109607" id="Stroke-367" stroke="#FFFFFF" stroke-width="1.28830755" stroke-linecap="round" mask="url(#mask-29)"></line>
                        </g>
                        <g id="Group-372">
                            <mask id="mask-31" fill="white">
                                <use xlink:href="#path-30"></use>
                            </mask>
                            <g id="Clip-371"></g>
                            <line x1="195.93017" y1="91.9558399" x2="208.038172" y2="92.4604855" id="Stroke-370" stroke="#FFFFFF" stroke-width="1.28830755" stroke-linecap="round" mask="url(#mask-31)"></line>
                        </g>
                        <g id="Group-375">
                            <mask id="mask-33" fill="white">
                                <use xlink:href="#path-32"></use>
                            </mask>
                            <g id="Clip-374"></g>
                            <line x1="83.4271588" y1="190.460253" x2="71.8231526" y2="190.964899" id="Stroke-373" stroke="#FFFFFF" stroke-width="2.36603774" stroke-linecap="round" mask="url(#mask-33)"></line>
                        </g>
                        <g id="Group-378">
                            <mask id="mask-35" fill="white">
                                <use xlink:href="#path-34"></use>
                            </mask>
                            <g id="Clip-377"></g>
                            <line x1="8.76165274" y1="250.067547" x2="14.8156536" y2="256.129357" id="Stroke-376" stroke="#FFFFFF" stroke-width="1.28830755" stroke-linecap="round" mask="url(#mask-35)"></line>
                        </g>
                    </g>
                    <path d="M134.194985,133.600653 C134.194985,133.28975 134.112517,133.002539 133.976614,132.744911 C133.857301,132.44117 133.665798,132.176482 133.424576,131.963837 C133.270894,131.762962 133.088805,131.585747 132.879484,131.446376 C132.710413,131.260878 132.516483,131.102584 132.298873,130.975039 C132.101425,130.761186 131.869648,130.584 131.611821,130.444657 C131.390728,130.202446 131.125837,130.004 130.832526,129.850492 C130.587788,129.581106 130.298066,129.360214 129.971637,129.19254 C129.710352,128.895974 129.396982,128.651453 129.044536,128.467243 C128.770252,128.144678 128.43915,127.876525 128.063054,127.673415 C127.779321,127.324848 127.435218,127.033059 127.042571,126.809862 C126.75412,126.436473 126.400568,126.118683 125.993736,125.873034 C125.704116,125.476003 125.348213,125.132207 124.933114,124.862919 C124.639964,124.432791 124.267514,124.060633 123.838234,123.765347 C123.554555,123.322209 123.189209,122.941772 122.769404,122.626384 C122.494021,122.160781 122.141703,121.754329 121.724279,121.414115 C121.463105,120.926043 121.127367,120.49121 120.720606,120.124983 C120.474822,119.61917 120.161581,119.151224 119.767849,118.7578 C119.543369,118.236607 119.224212,117.771029 118.849422,117.355133 C118.648618,116.807919 118.357873,116.311589 117.999663,115.86613 C117.822531,115.299988 117.573212,114.770535 117.237495,114.299056 C117.093487,113.737623 116.871376,113.2117 116.577073,112.728376 C116.465035,112.120821 116.246495,111.555885 115.965233,111.027632 C115.887515,110.398779 115.731699,109.798343 115.478844,109.244066 C115.438971,108.640016 115.319817,108.060837 115.123745,107.514803 C115.124949,107.478156 115.129702,107.442689 115.129723,107.406043 C115.130123,106.716855 115.021666,106.052556 114.824456,105.428501 C114.830438,105.315012 114.842333,105.202702 114.8424,105.088035 C114.842875,104.26763 114.689531,103.485143 114.421398,102.757101 C114.39474,101.80313 114.17758,100.900102 113.803024,100.079914 C113.681697,99.1685553 113.39116,98.312855 112.959787,97.5447146 C112.744968,96.6842419 112.383416,95.8817791 111.89404,95.1715971 C111.591643,94.3655535 111.160255,93.6234202 110.61642,92.9771053 C110.234723,92.2313967 109.738228,91.5555009 109.144666,90.9765967 C108.681307,90.2841317 108.111424,89.6732961 107.459855,89.158261 C106.929021,88.5343992 106.303493,87.9957062 105.606922,87.5575362 C105.020439,87.0117278 104.357006,86.5534422 103.630813,86.1944927 C102.999327,85.7290958 102.305089,85.3500314 101.558737,85.071479 C100.89408,84.6841225 100.174951,84.3842759 99.4131753,84.1825714 C98.72363,83.8708862 97.9867107,83.6478889 97.2166094,83.5218462 C96.5057265,83.2834659 95.7557503,83.1349509 94.9796919,83.0810221 C94.3160808,82.9300928 93.6287713,82.8430127 92.918933,82.843424 C92.8491322,82.8434644 92.7828751,82.8529599 92.7130737,82.8541825 C92.3238738,82.8059402 91.9311157,82.7732997 91.528874,82.7732997 C91.158575,82.7732997 90.7929925,82.8009164 90.432134,82.8425004 C90.346954,82.8413676 90.2653295,82.8295935 90.1801489,82.8296428 C89.4892396,82.8300431 88.8172154,82.9060893 88.1688168,83.0435931 C87.3997931,83.0995991 86.6520192,83.233614 85.9408689,83.4562681 C85.1895486,83.5855566 84.4606627,83.7904889 83.7743191,84.0781462 C83.026502,84.2866359 82.3070367,84.5672197 81.6383952,84.9305237 C80.9106443,85.2182051 80.2195259,85.5791578 79.5804192,86.0145552 C78.8691798,86.3908874 78.2064008,86.8452128 77.6015536,87.3657043 C76.8677627,87.8685384 76.2084513,88.4635363 75.6212678,89.1258743 C74.9512999,89.7362461 74.3534551,90.422233 73.8525804,91.1790921 C73.232217,91.9348383 72.7170961,92.7768196 72.3084168,93.6778462 C71.8039271,94.5481928 71.4153359,95.4905826 71.153301,96.4872775 C70.6817082,97.7524394 70.409997,99.1144209 70.4091663,100.543627 C70.4054487,106.959097 75.6043651,112.157497 82.0201208,112.15378 C88.1010694,112.150257 93.0856623,107.47201 93.5942802,101.52201 C93.5942802,101.52201 93.5954632,101.522009 93.5954639,101.520827 C93.7197131,101.47347 93.8475079,101.432021 93.9693937,101.379936 C94.1137501,101.340842 94.2604699,101.306475 94.4012806,101.261472 C94.5586425,101.236556 94.7171867,101.212821 94.8733704,101.179631 C95.0390055,101.168895 95.2034555,101.161707 95.3667293,101.142699 C95.4944974,101.147353 95.621077,101.161465 95.750031,101.161391 C95.7902552,101.161367 95.8304821,101.156616 95.870707,101.15541 C96.0434192,101.181317 96.2161308,101.208406 96.3912153,101.223673 C96.5674644,101.270856 96.7413467,101.319223 96.9211519,101.354583 C97.0831946,101.418325 97.2464211,101.480883 97.4143854,101.533982 C97.5953366,101.633177 97.7845761,101.720546 97.973817,101.80555 C98.1535687,101.933117 98.3380588,102.050042 98.5272832,102.163418 C98.7022828,102.325269 98.886751,102.480023 99.07714,102.625315 C99.2686634,102.854539 99.4767579,103.069568 99.6931393,103.275135 C99.8810772,103.567014 100.087952,103.844697 100.313766,104.105819 C100.487465,104.469817 100.688385,104.81725 100.917709,105.144569 C101.067697,105.594877 101.262653,106.025063 101.497848,106.4304 C101.615812,107.021402 101.816608,107.580437 102.080127,108.105154 C102.177779,109.040169 102.476589,109.912415 102.925703,110.687638 C103.076597,111.616711 103.412085,112.483025 103.919187,113.228661 C104.128084,114.099776 104.526319,114.888032 105.060668,115.570999 C105.315731,116.397166 105.737652,117.142851 106.299243,117.771424 C106.602828,118.569192 107.067358,119.281753 107.669201,119.863016 C108.008316,120.593382 108.504836,121.22672 109.110265,121.742964 C109.480165,122.431937 109.984987,123.027443 110.604642,123.494028 C110.999411,124.14043 111.520818,124.699279 112.149965,125.117392 C112.563691,125.714133 113.109984,126.200857 113.736794,126.569322 C114.163558,127.125862 114.706321,127.579489 115.335522,127.905394 C115.771773,128.420554 116.309822,128.843448 116.931949,129.126801 C117.367046,129.593494 117.898025,129.967924 118.49888,130.211097 C118.937546,130.643506 119.475652,130.9671 120.068246,131.174813 C120.502201,131.570578 121.021396,131.863448 121.598629,132.039252 C122.023143,132.39483 122.522243,132.65934 123.07465,132.803241 C123.486172,133.119816 123.961627,133.355968 124.485657,133.471514 C124.88064,133.747906 125.334824,133.941514 125.82811,134.03107 C126.20182,134.269646 126.628814,134.427805 127.087804,134.493739 C127.436692,134.694501 127.827027,134.82431 128.246987,134.872534 C128.565137,135.034303 128.915266,135.134582 129.289095,135.166283 C129.601344,135.304412 129.943204,135.382235 130.305218,135.389119 C130.545333,135.469365 130.798478,135.522414 131.064667,135.52226 C131.091878,135.522244 131.115543,135.515138 131.141571,135.515123 C131.302447,135.550494 131.468062,135.573941 131.640789,135.573941 C131.749631,135.573941 131.852567,135.557268 131.956686,135.54184 C131.994543,135.544182 132.030029,135.553619 132.067887,135.553597 C132.382582,135.553414 132.67721,135.476405 132.943472,135.349762 C133.67002,135.096363 134.194985,134.412783 134.194985,133.600653" id="Fill-1" fill="#0088E3" transform="translate(102.302076, 109.173620) rotate(28.000000) translate(-102.302076, -109.173620) "></path>
                    <path d="M137.516118,74.1667827 C134.069154,75.8104259 124.941656,66.7330328 123.250634,58.1085755 C122.165536,52.814986 126.300347,46.2046142 131.555808,45.111965 C136.81436,44.0177594 141.956982,47.4233383 143.04208,52.7169278 C144.822754,61.4052008 135.653521,62.0620354 137.516118,74.1667827 Z" id="Fill-1" fill="#FFD38B"></path>
                    <g id="Fill-1-Copy" transform="translate(65.156197, 305.341348) scale(-1, 1) rotate(155.000000) translate(-65.156197, -305.341348) ">
                        <use fill="#FFD38B" xlink:href="#path-37"></use>
                        <use fill="url(#linearGradient-36)" xlink:href="#path-37"></use>
                    </g>
                    <ellipse id="Oval" fill="#37ABFF" transform="translate(11.772233, 287.482471) rotate(-31.000000) translate(-11.772233, -287.482471) " cx="11.7722327" cy="287.482471" rx="9.46391907" ry="7.09328345"></ellipse>
                    <g id="Fill-1-Copy-2" transform="translate(61.174894, 237.195763) scale(-1, 1) rotate(100.000000) translate(-61.174894, -237.195763) ">
                        <use fill="#FFBABA" xlink:href="#path-39"></use>
                        <use fill="url(#linearGradient-38)" xlink:href="#path-39"></use>
                    </g>
                    <path d="M334.503816,212.894063 C333.902635,212.410717 333.247015,211.979369 332.525124,211.623655 C332.488438,211.604747 332.449385,211.591747 332.410332,211.574021 C331.986664,211.28094 331.545245,211.004405 331.069507,210.769232 C330.865958,210.668781 330.657674,210.58842 330.451758,210.503333 C330.178386,210.334339 329.89673,210.174799 329.60324,210.029441 C329.187856,209.824994 328.764189,209.661909 328.338155,209.517732 C328.267149,209.479916 328.20206,209.43619 328.128688,209.400737 C327.493187,209.086384 326.839934,208.847666 326.180765,208.676309 C325.548814,208.403319 324.905029,208.200053 324.25296,208.066513 C323.550004,207.802977 322.831662,207.635165 322.112138,207.540623 C321.415099,207.337358 320.709775,207.207362 320.004452,207.164819 C319.376052,207.028914 318.742918,206.95919 318.11215,206.953281 C317.426945,206.841012 316.740557,206.811468 316.060085,206.85283 C315.411567,206.791378 314.764231,206.796105 314.127547,206.87292 C313.497963,206.850466 312.871929,206.896556 312.258914,207.005279 C311.611578,207.015915 310.972527,207.095094 310.350044,207.246361 C309.764247,207.29245 309.186734,207.39881 308.625788,207.561895 C308.010406,207.636347 307.408041,207.77816 306.826977,207.983789 C306.263665,208.084239 305.713371,208.241415 305.182012,208.456498 C304.603315,208.582948 304.041187,208.772032 303.503911,209.022569 C302.964267,209.166745 302.441192,209.37001 301.942969,209.626456 C301.400958,209.794268 300.8767,210.01526 300.382027,210.298886 C299.867235,210.480879 299.376112,210.721961 298.912209,211.011496 C298.406885,211.208852 297.924046,211.459388 297.47316,211.765468 C296.982037,211.975824 296.515766,212.240542 296.081448,212.557257 C295.603343,212.779431 295.152457,213.060693 294.734706,213.388045 C294.267252,213.622037 293.82465,213.906844 293.418734,214.248377 C292.977315,214.485914 292.560749,214.773085 292.178501,215.111073 C291.752467,215.353337 291.363119,215.659416 290.99744,215.999768 C290.570222,216.252667 290.183241,216.571747 289.823479,216.926279 C289.408095,217.18627 289.029398,217.505349 288.683837,217.866972 C288.280288,218.13169 287.913425,218.449587 287.583249,218.814755 C287.191534,219.085382 286.834139,219.399734 286.518163,219.76963 C286.1442,220.043801 285.793905,220.353426 285.495681,220.724504 C285.144203,220.996312 284.81521,221.300028 284.535921,221.661651 C284.210478,221.924005 283.913437,222.222994 283.65545,222.568072 C283.341842,222.825699 283.060186,223.127052 282.814033,223.466221 C282.511075,223.720303 282.248354,224.022837 282.014035,224.354916 C281.712261,224.614907 281.457824,224.931622 281.228239,225.273155 C280.944216,225.5296 280.701613,225.83568 280.487412,226.170122 C280.222324,226.423022 279.991556,226.717284 279.795107,227.044636 C279.54777,227.291627 279.331203,227.572889 279.151322,227.889605 C278.92292,228.130687 278.71937,228.39895 278.556057,228.703848 C278.348957,228.936657 278.159609,229.189557 278.012864,229.481456 C277.840083,229.688266 277.682687,229.91044 277.558427,230.162158 C277.553693,230.172794 277.551327,230.18343 277.546593,230.195248 C277.402215,230.374877 277.274404,230.571052 277.167896,230.786135 C277.150144,230.819225 277.144227,230.853496 277.128843,230.887768 C277.0176,231.037853 276.913459,231.195029 276.828252,231.36875 C276.795116,231.433748 276.779731,231.503472 276.751329,231.570834 C276.677956,231.679557 276.601034,231.785917 276.540679,231.906458 C276.492158,232.004545 276.464939,232.106178 276.429437,232.206629 C276.390383,232.270444 276.343046,232.328351 276.30991,232.395712 C276.246005,232.524526 276.203402,232.658067 276.161982,232.789244 C276.153698,232.805788 276.143047,232.817606 276.134763,232.834151 C276.037722,233.030326 275.977367,233.233591 275.93358,233.43922 C275.848373,233.667302 275.788018,233.89893 275.773817,234.132922 C275.73003,234.383458 275.72648,234.633994 275.7679,234.878622 C275.832989,235.551051 276.229437,236.177392 276.880323,236.498835 C277.163162,236.638284 277.463753,236.698555 277.75961,236.700918 C278.068485,236.725736 278.376176,236.685555 278.663749,236.583923 C278.835346,236.547288 278.999843,236.491744 279.157239,236.417292 C279.360789,236.357022 279.557238,236.276661 279.741853,236.166756 C279.928834,236.09585 280.105165,236.002489 280.274395,235.891403 C280.477945,235.808678 280.66966,235.701137 280.849541,235.573505 C281.068476,235.477781 281.274392,235.358422 281.468474,235.214246 C281.70161,235.109068 281.921728,234.979072 282.127644,234.820715 C282.374981,234.704901 282.609299,234.565451 282.825867,234.394094 C283.087404,234.271189 283.334741,234.123467 283.560776,233.940292 C283.836515,233.810297 284.095685,233.654303 284.333555,233.461673 C284.619944,233.326951 284.892133,233.163866 285.141836,232.962964 C285.438877,232.823515 285.721716,232.655703 285.980887,232.447711 C286.290945,232.305898 286.583252,232.133358 286.853074,231.920639 C287.172599,231.777644 287.475557,231.600378 287.756029,231.384113 C288.083839,231.239937 288.396264,231.061489 288.686204,230.844042 C289.024665,230.701047 289.34419,230.520236 289.644781,230.302789 C289.991526,230.160976 290.318152,229.980165 290.627027,229.7639 C290.982055,229.625632 291.316965,229.446002 291.634124,229.233283 C291.996253,229.098561 292.338264,228.921294 292.66489,228.713302 C293.03767,228.580943 293.391515,228.404859 293.728792,228.198048 C294.119324,228.066871 294.49092,227.888423 294.847132,227.676885 C295.243581,227.548072 295.625828,227.383805 295.98914,227.175813 C296.367838,227.056454 296.735884,226.901641 297.087362,226.711375 C297.412805,226.616833 297.72523,226.490383 298.032921,226.345025 C298.454222,226.244574 298.866055,226.100398 299.260136,225.918404 C299.645934,225.828589 300.022264,225.700958 300.387944,225.546145 C300.76309,225.468148 301.129953,225.357061 301.487349,225.218794 C301.862495,225.152614 302.231725,225.061618 302.590304,224.936349 C302.960717,224.883169 303.321663,224.7969 303.676691,224.686995 C304.045921,224.646815 304.40805,224.57709 304.765445,224.482548 C305.11219,224.455367 305.456567,224.408096 305.796211,224.334826 C306.15479,224.320645 306.511002,224.275737 306.86248,224.214285 C307.210408,224.214285 307.555969,224.19774 307.900347,224.154014 C308.223423,224.167014 308.546499,224.15756 308.868391,224.131561 C309.200935,224.162287 309.533478,224.176468 309.866021,224.167014 C310.170162,224.207194 310.474304,224.229648 310.778445,224.23792 C311.079035,224.293464 311.379626,224.336008 311.6814,224.360825 C311.985542,224.435277 312.289683,224.49082 312.596191,224.533364 C312.852995,224.610179 313.112165,224.675177 313.371336,224.728357 C313.688495,224.846534 314.010388,224.94344 314.33228,225.026164 C314.573699,225.127797 314.815119,225.219975 315.060088,225.301518 C315.096775,225.319244 315.128727,225.340516 315.16423,225.358243 C315.418667,225.483511 315.676655,225.591053 315.935825,225.691504 C316.119257,225.796681 316.297955,225.906587 316.490853,226.001129 C316.560676,226.036582 316.632865,226.061399 316.70387,226.093307 C316.942923,226.251665 317.191443,226.399387 317.447063,226.538836 C317.729903,226.755101 318.030494,226.957184 318.340552,227.14745 C318.578421,227.34717 318.825757,227.538618 319.083745,227.718247 C319.370135,227.997146 319.674276,228.261864 319.994985,228.510037 C320.241138,228.772391 320.501492,229.020563 320.776047,229.259282 C321.72279,230.405604 322.915686,231.379386 324.3358,232.080179 C329.719216,234.735627 336.242273,232.52689 338.90262,227.14745 C341.473026,221.951186 339.491967,215.707869 334.503816,212.894063" id="Fill-1" fill="#37ABFF"></path>
                </g>
            </g>
        </g>
    </g>
</svg>